<svg width="124" height="121" viewBox="0 0 124 121" fill="none" xmlns="http://www.w3.org/2000/svg">
<path d="M62 0C27.7657 0 0 27.7605 0 62C0 89.3937 17.763 112.633 42.4028 120.833C45.4977 121.406 46.5 119.484 46.5 117.852V106.309C29.2537 110.06 25.6628 98.9933 25.6628 98.9933C22.8418 91.8272 18.7757 89.9207 18.7757 89.9207C13.1492 86.0715 19.2045 86.1542 19.2045 86.1542C25.4303 86.5882 28.706 92.5453 28.706 92.5453C34.2343 102.021 43.2088 99.2827 46.748 97.6965C47.3008 93.6923 48.9077 90.954 50.685 89.4092C36.9158 87.8333 22.4388 82.5168 22.4388 58.7657C22.4388 51.9922 24.862 46.4638 28.8248 42.1238C28.1842 40.5583 26.0607 34.2498 29.4293 25.7145C29.4293 25.7145 34.6373 24.0508 46.4845 32.0695C51.429 30.6952 56.73 30.008 62 29.9822C67.27 30.008 72.5762 30.6952 77.531 32.0695C89.3678 24.0508 94.5655 25.7145 94.5655 25.7145C97.9393 34.255 95.8158 40.5635 95.1752 42.1238C99.1535 46.4638 101.556 51.9973 101.556 58.7657C101.556 82.5788 87.0532 87.823 73.2478 89.3575C75.4695 91.2795 77.5 95.0512 77.5 100.838V117.852C77.5 119.5 78.492 121.437 81.6385 120.828C106.258 112.618 124 89.3833 124 62C124 27.7605 96.2395 0 62 0Z" fill="#fff"/>
</svg>
