<svg width="86" height="77" viewBox="0 0 86 77" fill="none" xmlns="http://www.w3.org/2000/svg">
<path d="M70.7091 24.9319C69.7939 24.6162 68.8709 24.3237 67.941 24.0548C68.0972 23.4131 68.241 22.7792 68.3687 22.1565C70.4642 11.93 69.0943 3.69134 64.415 0.978774C59.9286 -1.62166 52.5914 1.08988 45.1812 7.57308C44.4509 8.21317 43.7368 8.87171 43.0396 9.54806C42.5729 9.09831 42.0979 8.65729 41.6149 8.22522C33.8487 1.29319 26.0644 -1.62842 21.3901 1.09191C16.9077 3.70045 15.5804 11.4454 17.4671 21.1372C17.6548 22.0971 17.8667 23.052 18.1027 24.0011C17.0008 24.3159 15.9375 24.6509 14.92 25.0075C5.81474 28.1989 0 33.2002 0 38.3879C0 43.7459 6.24239 49.12 15.7259 52.3786C16.4948 52.6417 17.27 52.8855 18.0509 53.1098C17.7973 54.132 17.5721 55.1611 17.3757 56.1959C15.5771 65.7196 16.9816 73.2814 21.452 75.8734C26.0691 78.5502 33.8185 75.7991 41.364 69.168C41.9758 68.6289 42.5742 68.0745 43.1586 67.5054C43.9136 68.2378 44.6888 68.9489 45.4832 69.6378C52.7926 75.9606 60.0112 78.5137 64.4772 75.9146C69.0899 73.2301 70.5892 65.1066 68.6428 55.2233C68.4894 54.449 68.3175 53.6785 68.1271 52.9126C68.6713 52.7505 69.2055 52.5836 69.7262 52.4101C79.5853 49.1264 86 43.8175 86 38.3879C86 33.1813 79.9975 28.1463 70.7091 24.9319ZM68.5709 48.9045C68.1006 49.0609 67.6182 49.2118 67.1264 49.3588C66.0379 45.8948 64.5692 42.2116 62.7716 38.4058C64.4869 34.6909 65.8992 31.0547 66.957 27.6133C67.8369 27.8693 68.6905 28.1392 69.5135 28.4239C77.4719 31.1783 82.3262 35.2502 82.3262 38.3879C82.3262 41.73 77.0835 46.0687 68.5709 48.9045ZM65.0388 55.9406C65.8995 60.3107 66.0221 64.262 65.452 67.3511C64.9401 70.1268 63.9101 71.9772 62.6362 72.7185C59.9262 74.2956 54.1303 72.2457 47.8795 66.8381C47.1405 66.1976 46.4195 65.5365 45.7171 64.8557C48.1405 62.1914 50.5623 59.0942 52.9259 55.6542C57.0835 55.2834 61.0113 54.6768 64.5732 53.8491C64.7486 54.5606 64.9045 55.2584 65.0388 55.9406ZM29.3193 72.4459C26.6714 73.3858 24.5624 73.4128 23.2875 72.6739C20.5748 71.1011 19.4471 65.0293 20.9853 56.8848C21.1682 55.9224 21.3776 54.9653 21.6132 54.0146C25.1359 54.7981 29.0351 55.3614 33.2024 55.7011C35.5822 59.0672 38.0738 62.161 40.5849 64.8702C40.0513 65.3893 39.505 65.8952 38.9466 66.3872C35.6097 69.3193 32.2661 71.3997 29.3193 72.4459ZM16.9145 48.8839C12.7209 47.4429 9.25777 45.5702 6.88403 43.5267C4.75083 41.6905 3.67415 39.8672 3.67415 38.3879C3.67415 35.2397 8.34267 31.2242 16.1294 28.4951C17.0744 28.1642 18.0634 27.8518 19.0896 27.5586C20.166 31.0777 21.5776 34.7571 23.2811 38.4778C21.5554 42.2535 20.1237 45.9917 19.0369 49.5523C18.3241 49.347 17.6164 49.1241 16.9145 48.8839ZM21.0727 20.4277C19.4565 12.1242 20.5298 5.86051 23.2311 4.28842C26.1081 2.61401 32.47 5.00135 39.1757 10.9871C39.613 11.3783 40.0431 11.7774 40.466 12.1843C37.9673 14.8817 35.4985 17.9525 33.1399 21.2987C29.0952 21.6756 25.2235 22.2808 21.6639 23.0916C21.4446 22.2089 21.2475 21.3207 21.0727 20.428V20.4277ZM58.1693 29.6366C57.3285 28.1766 56.4565 26.735 55.554 25.3128C58.2979 25.6617 60.927 26.1247 63.3958 26.6907C62.6547 29.079 61.7309 31.5758 60.6434 34.1357C59.8486 32.6196 59.0237 31.1196 58.1693 29.6366ZM43.0413 14.8239C44.7358 16.6696 46.4329 18.73 48.1022 20.9657C44.716 20.8049 41.3241 20.8042 37.9378 20.9637C39.6087 18.7486 41.3203 16.6908 43.0413 14.8239ZM27.8163 29.662C26.9725 31.133 26.163 32.6237 25.3885 34.1327C24.3189 31.5819 23.4034 29.0736 22.656 26.6515C25.1096 26.0997 27.7263 25.6485 30.4527 25.306C29.5401 26.737 28.6611 28.1892 27.8163 29.6616V29.662ZM30.531 51.7326C27.7142 51.4165 25.0583 50.9886 22.6052 50.4516C23.3645 47.9863 24.3 45.4247 25.3928 42.8192C26.1705 44.3293 26.9833 45.8209 27.8307 47.2926C28.7022 48.8056 29.6045 50.2875 30.531 51.7326ZM43.1428 62.212C41.4013 60.3235 39.6645 58.234 37.9683 55.9868C39.6151 56.0517 41.2938 56.0848 43 56.0848C44.7529 56.0848 46.4857 56.0453 48.1912 55.9689C46.5166 58.2566 44.8258 60.3492 43.1428 62.212ZM60.678 42.6861C61.8276 45.3203 62.7965 47.8684 63.5658 50.2915C61.0724 50.8636 58.3802 51.3243 55.5436 51.6664C56.4525 50.2178 57.3328 48.7511 58.1837 47.2673C59.0489 45.759 59.8805 44.2316 60.678 42.6861ZM55.0014 45.422C53.6987 47.697 52.3227 49.9288 50.8757 52.1139C48.2546 52.3005 45.6277 52.3932 43 52.3918C40.3236 52.3918 37.7204 52.3081 35.2136 52.1446C33.7289 49.9646 32.3267 47.7288 31.0101 45.4422H31.0104C29.7 43.1677 28.4759 40.844 27.3409 38.4761C28.473 36.1076 29.6934 33.7828 30.9993 31.5066L30.999 31.5069C32.3044 29.2301 33.6954 27.0039 35.169 24.8332C37.7265 24.6387 40.3491 24.5374 42.9997 24.5374H43C45.6626 24.5374 48.2887 24.6397 50.8455 24.8356C52.3041 27.003 53.6863 29.2215 54.9893 31.487C56.2996 33.7582 57.536 36.0717 58.6967 38.4237C57.5479 40.7998 56.3154 43.1341 55.0014 45.422ZM62.5801 4.17833C65.4598 5.84801 66.5798 12.5811 64.7704 21.4108C64.6549 21.9741 64.5252 22.5479 64.3841 23.1298C60.8158 22.3017 56.9414 21.686 52.885 21.3034C50.522 17.9205 48.0733 14.8449 45.6153 12.1823C46.2595 11.558 46.919 10.9499 47.5933 10.3586C53.9425 4.80412 59.8765 2.61097 62.5801 4.17833ZM43 30.6677C47.2412 30.6677 50.6795 34.1242 50.6795 38.3879C50.6795 42.6516 47.2412 46.1082 43 46.1082C38.7588 46.1082 35.3205 42.6516 35.3205 38.3879C35.3205 34.1242 38.7588 30.6677 43 30.6677Z" fill="#00D8FF"/>
</svg>
